<?xml version="1.0" ?><svg height="24" viewBox="0 0 24 24" width="24" xmlns="http://www.w3.org/2000/svg"><title/><g data-name="Layer 2" id="Layer_2"><g data-name="Layer 1" id="Layer_1-2"><line fill="none" stroke="#000" stroke-linecap="round" stroke-linejoin="round" x1="15.53583" x2="15.53583" y1="14.21626" y2="17.20641"/><line fill="none" stroke="#000" stroke-linecap="round" stroke-linejoin="round" x1="18.53583" x2="18.53583" y1="13.58907" y2="16.58906"/><line fill="none" stroke="#000" stroke-linecap="round" stroke-linejoin="round" x1="12.53583" x2="12.53583" y1="14.46814" y2="17.46814"/><line fill="none" stroke="#000" stroke-linecap="round" stroke-linejoin="round" x1="9.53583" x2="9.53583" y1="14.47107" y2="17.47106"/><line fill="none" stroke="#000" stroke-linecap="round" stroke-linejoin="round" x1="6.53583" x2="6.53583" y1="14.21614" y2="17.21604"/><line fill="none" stroke="#000" stroke-linecap="round" stroke-linejoin="round" x1="3.53583" x2="3.53583" y1="13.60996" y2="16.60965"/><path d="M3.12265,9.51639C1.49035,10.04515.5,10.73953.5,11.5c0,1.65685,4.701,3,10.5,3s10.5-1.34315,10.5-3a1.35811,1.35811,0,0,0-.62068-1.01856" fill="none" stroke="#000" stroke-linecap="round" stroke-linejoin="round"/><path d="M.5,11.5v3c0,1.65685,4.701,3,10.5,3s10.5-1.34315,10.5-3v-3" fill="none" stroke="#000" stroke-linecap="round" stroke-linejoin="round"/><line fill="none" stroke="#000" stroke-linecap="round" stroke-linejoin="round" x1="17.53583" x2="17.53583" y1="20.21626" y2="23.20641"/><line fill="none" stroke="#000" stroke-linecap="round" stroke-linejoin="round" x1="20.53583" x2="20.53583" y1="19.58907" y2="22.58906"/><line fill="none" stroke="#000" stroke-linecap="round" stroke-linejoin="round" x1="14.53583" x2="14.53583" y1="20.46814" y2="23.46814"/><line fill="none" stroke="#000" stroke-linecap="round" stroke-linejoin="round" x1="11.53583" x2="11.53583" y1="20.47107" y2="23.47106"/><line fill="none" stroke="#000" stroke-linecap="round" stroke-linejoin="round" x1="8.53583" x2="8.53583" y1="20.21614" y2="23.21604"/><line fill="none" stroke="#000" stroke-linecap="round" stroke-linejoin="round" x1="5.53583" x2="5.53583" y1="19.60996" y2="22.60965"/><path d="M3.12136,16.4809A1.35866,1.35866,0,0,0,2.5,17.5c0,1.65685,4.701,3,10.5,3s10.5-1.34315,10.5-3c0-.76047-.99035-1.45485-2.62265-1.98361" fill="none" stroke="#000" stroke-linecap="round" stroke-linejoin="round"/><path d="M2.5,17.5v3c0,1.65685,4.701,3,10.5,3s10.5-1.34315,10.5-3v-3" fill="none" stroke="#000" stroke-linecap="round" stroke-linejoin="round"/><line fill="none" stroke="#000" stroke-linecap="round" stroke-linejoin="round" x1="17.53583" x2="17.53583" y1="8.21626" y2="11.20641"/><line fill="none" stroke="#000" stroke-linecap="round" stroke-linejoin="round" x1="20.53583" x2="20.53583" y1="7.58907" y2="10.58906"/><line fill="none" stroke="#000" stroke-linecap="round" stroke-linejoin="round" x1="14.53583" x2="14.53583" y1="8.46814" y2="11.46814"/><line fill="none" stroke="#000" stroke-linecap="round" stroke-linejoin="round" x1="11.53583" x2="11.53583" y1="8.47107" y2="11.47106"/><line fill="none" stroke="#000" stroke-linecap="round" stroke-linejoin="round" x1="8.53583" x2="8.53583" y1="8.21614" y2="11.21604"/><line fill="none" stroke="#000" stroke-linecap="round" stroke-linejoin="round" x1="5.53583" x2="5.53583" y1="7.60996" y2="10.60965"/><ellipse cx="13" cy="5.5" fill="none" rx="10.5" ry="3" stroke="#000" stroke-linecap="round" stroke-linejoin="round"/><path d="M2.5,5.5v3c0,1.65685,4.701,3,10.5,3s10.5-1.34315,10.5-3v-3" fill="none" stroke="#000" stroke-linecap="round" stroke-linejoin="round"/></g><g data-name="Layer 2" id="Layer_2-2"><rect fill="none" height="24" width="24"/></g></g></svg>