<svg width="24" height="24" xmlns="http://www.w3.org/2000/svg">
 <title/>

 <g>
  <title>background</title>
  <rect fill="#eeeef2" id="canvas_background" height="26" width="26" y="-1" x="-1"/>
 </g>
 <g>
  <title>Layer 1</title>
  <line id="svg_1" y2="17.20641" y1="14.21626" x2="15.53583" x1="15.53583" stroke-linejoin="round" stroke-linecap="round" stroke="#000" fill="none"/>
  <line id="svg_2" y2="16.58906" y1="13.58907" x2="18.53583" x1="18.53583" stroke-linejoin="round" stroke-linecap="round" stroke="#000" fill="none"/>
  <line id="svg_3" y2="17.46814" y1="14.46814" x2="12.53583" x1="12.53583" stroke-linejoin="round" stroke-linecap="round" stroke="#000" fill="none"/>
  <line id="svg_4" y2="17.47106" y1="14.47107" x2="9.53583" x1="9.53583" stroke-linejoin="round" stroke-linecap="round" stroke="#000" fill="none"/>
  <line id="svg_5" y2="17.21604" y1="14.21614" x2="6.53583" x1="6.53583" stroke-linejoin="round" stroke-linecap="round" stroke="#000" fill="none"/>
  <line id="svg_6" y2="16.60965" y1="13.60996" x2="3.53583" x1="3.53583" stroke-linejoin="round" stroke-linecap="round" stroke="#000" fill="none"/>
  <path id="svg_7" stroke-linejoin="round" stroke-linecap="round" stroke="#000" fill="none" d="m3.12265,9.51639c-1.6323,0.52876 -2.62265,1.22314 -2.62265,1.98361c0,1.65685 4.701,3 10.5,3s10.5,-1.34315 10.5,-3a1.35811,1.35811 0 0 0 -0.62068,-1.01856"/>
  <path id="svg_8" stroke-linejoin="round" stroke-linecap="round" stroke="#000" fill="none" d="m0.5,11.5l0,3c0,1.656851 4.701,3 10.5,3s10.5,-1.343149 10.5,-3l0,-3"/>
  <line id="svg_9" y2="23.20641" y1="20.21626" x2="17.53583" x1="17.53583" stroke-linejoin="round" stroke-linecap="round" stroke="#000" fill="none"/>
  <line id="svg_10" y2="22.58906" y1="19.58907" x2="20.53583" x1="20.53583" stroke-linejoin="round" stroke-linecap="round" stroke="#000" fill="none"/>
  <line id="svg_11" y2="23.46814" y1="20.46814" x2="14.53583" x1="14.53583" stroke-linejoin="round" stroke-linecap="round" stroke="#000" fill="none"/>
  <line id="svg_12" y2="23.47106" y1="20.47107" x2="11.53583" x1="11.53583" stroke-linejoin="round" stroke-linecap="round" stroke="#000" fill="none"/>
  <line id="svg_13" y2="23.21604" y1="20.21614" x2="8.53583" x1="8.53583" stroke-linejoin="round" stroke-linecap="round" stroke="#000" fill="none"/>
  <line id="svg_14" y2="22.60965" y1="19.60996" x2="5.53583" x1="5.53583" stroke-linejoin="round" stroke-linecap="round" stroke="#000" fill="none"/>
  <path id="svg_15" stroke-linejoin="round" stroke-linecap="round" stroke="#000" fill="none" d="m3.12136,16.4809a1.35866,1.35866 0 0 0 -0.62136,1.0191c0,1.656851 4.701,3 10.5,3s10.5,-1.343149 10.5,-3c0,-0.760469 -0.990351,-1.454849 -2.62265,-1.98361"/>
  <path id="svg_16" stroke-linejoin="round" stroke-linecap="round" stroke="#000" fill="none" d="m2.5,17.5l0,3c0,1.656851 4.701,3 10.5,3s10.5,-1.343149 10.5,-3l0,-3"/>
  <line id="svg_17" y2="11.20641" y1="8.21626" x2="17.53583" x1="17.53583" stroke-linejoin="round" stroke-linecap="round" stroke="#000" fill="none"/>
  <line id="svg_18" y2="10.58906" y1="7.58907" x2="20.53583" x1="20.53583" stroke-linejoin="round" stroke-linecap="round" stroke="#000" fill="none"/>
  <line id="svg_19" y2="11.46814" y1="8.46814" x2="14.53583" x1="14.53583" stroke-linejoin="round" stroke-linecap="round" stroke="#000" fill="none"/>
  <line id="svg_20" y2="11.47106" y1="8.47107" x2="11.53583" x1="11.53583" stroke-linejoin="round" stroke-linecap="round" stroke="#000" fill="none"/>
  <line id="svg_21" y2="11.21604" y1="8.21614" x2="8.53583" x1="8.53583" stroke-linejoin="round" stroke-linecap="round" stroke="#000" fill="none"/>
  <line id="svg_22" y2="10.60965" y1="7.60996" x2="5.53583" x1="5.53583" stroke-linejoin="round" stroke-linecap="round" stroke="#000" fill="none"/>
  <ellipse id="svg_23" stroke-linejoin="round" stroke-linecap="round" stroke="#000" ry="3" rx="10.5" fill="none" cy="5.5" cx="13"/>
  <path id="svg_24" stroke-linejoin="round" stroke-linecap="round" stroke="#000" fill="none" d="m2.5,5.5l0,3c0,1.65685 4.701,3 10.5,3s10.5,-1.34315 10.5,-3l0,-3"/>
  <rect id="svg_25" width="24" height="24" fill="none"/>
 </g>
</svg>