<?xml version="1.0" encoding="UTF-8"?>
<svg id="Camada_1" data-name="Camada 1" xmlns="http://www.w3.org/2000/svg" viewBox="0 0 620.74 235.35">
  <defs>
    <style>
      .cls-1 {
        fill: #18a7bc;
      }

      .cls-2 {
        fill: #3e35a6;
      }
    </style>
  </defs>
  <g>
    <path class="cls-2" d="M80.76,183.85c3.67,3.67,5.51,8.8,5.51,15.39v28.66h-12.35v-26.98c0-3.82-.97-6.75-2.91-8.77-1.94-2.03-4.59-3.04-7.94-3.04s-6.01,1.01-7.98,3.04c-1.97,2.03-2.95,4.95-2.95,8.77v26.98h-12.34v-26.98c0-3.82-.97-6.75-2.91-8.77s-4.59-3.04-7.94-3.04-6.1,1.01-8.07,3.04c-1.97,2.03-2.95,4.95-2.95,8.77v26.98H5.59v-48.85h12.34v5.91c1.59-2.06,3.63-3.67,6.13-4.85,2.5-1.17,5.25-1.76,8.24-1.76,3.82,0,7.23.81,10.23,2.42,3,1.62,5.32,3.92,6.97,6.92,1.59-2.82,3.89-5.08,6.92-6.79,3.03-1.7,6.3-2.56,9.83-2.56,6,0,10.83,1.84,14.51,5.51Z"/>
    <path class="cls-2" d="M143.06,206.38h-35.71c.29,3.53,1.53,6.29,3.7,8.29,2.17,2,4.85,3,8.02,3,4.58,0,7.85-1.97,9.79-5.91h13.31c-1.41,4.7-4.12,8.57-8.11,11.59-4,3.03-8.91,4.54-14.72,4.54-4.7,0-8.92-1.04-12.65-3.13-3.73-2.09-6.64-5.04-8.73-8.86-2.09-3.82-3.13-8.23-3.13-13.23s1.03-9.49,3.09-13.31c2.06-3.82,4.94-6.76,8.64-8.82,3.7-2.06,7.97-3.09,12.79-3.09s8.8,1,12.48,3c3.67,2,6.53,4.84,8.55,8.51,2.03,3.67,3.04,7.89,3.04,12.65,0,1.76-.12,3.35-.35,4.76ZM130.62,198.09c-.06-3.17-1.21-5.72-3.44-7.63-2.23-1.91-4.97-2.87-8.2-2.87-3.06,0-5.63.93-7.72,2.78-2.09,1.85-3.37,4.42-3.84,7.72h23.19Z"/>
    <path class="cls-2" d="M198.52,178.43v48.85h-12.43v-6.17c-1.59,2.12-3.66,3.78-6.22,4.98-2.56,1.2-5.33,1.81-8.33,1.81-3.82,0-7.2-.81-10.14-2.42-2.94-1.62-5.25-4-6.92-7.14-1.68-3.14-2.51-6.89-2.51-11.24v-28.66h12.35v26.89c0,3.88.97,6.86,2.91,8.95,1.94,2.09,4.58,3.13,7.94,3.13s6.08-1.04,8.02-3.13c1.94-2.09,2.91-5.07,2.91-8.95v-26.89h12.43Z"/>
    <path class="cls-2" d="M218.84,189.36c1.97-3.82,4.66-6.76,8.07-8.82,3.41-2.06,7.2-3.09,11.37-3.09,3.17,0,6.2.69,9.08,2.07,2.88,1.38,5.17,3.22,6.88,5.51v-23.19h12.52v65.25h-12.52v-7.23c-1.53,2.41-3.67,4.35-6.44,5.82-2.76,1.47-5.97,2.2-9.61,2.2-4.12,0-7.88-1.06-11.29-3.17-3.41-2.12-6.1-5.1-8.07-8.95-1.97-3.85-2.95-8.27-2.95-13.27s.98-9.32,2.95-13.14ZM252.57,194.96c-1.18-2.15-2.76-3.79-4.76-4.94-2-1.15-4.14-1.72-6.44-1.72s-4.41.56-6.35,1.68-3.51,2.75-4.72,4.89c-1.21,2.15-1.81,4.69-1.81,7.63s.6,5.51,1.81,7.72c1.2,2.2,2.79,3.89,4.76,5.07,1.97,1.18,4.07,1.76,6.3,1.76s4.44-.57,6.44-1.72c2-1.15,3.58-2.79,4.76-4.94,1.17-2.15,1.76-4.72,1.76-7.72s-.59-5.57-1.76-7.72Z"/>
    <path class="cls-2" d="M279.68,171.15c-1.44-1.38-2.16-3.1-2.16-5.16s.72-3.78,2.16-5.16c1.44-1.38,3.25-2.07,5.42-2.07s3.98.69,5.42,2.07c1.44,1.38,2.16,3.1,2.16,5.16s-.72,3.78-2.16,5.16c-1.44,1.38-3.25,2.07-5.42,2.07s-3.98-.69-5.42-2.07ZM291.19,179.05v48.85h-12.35v-48.85h12.35Z"/>
    <path class="cls-2" d="M344.54,183.85c3.58,3.67,5.38,8.8,5.38,15.39v28.66h-12.34v-26.98c0-3.88-.97-6.86-2.91-8.95-1.94-2.09-4.59-3.13-7.94-3.13s-6.1,1.04-8.07,3.13c-1.97,2.09-2.95,5.07-2.95,8.95v26.98h-12.34v-48.85h12.34v6.08c1.65-2.12,3.75-3.78,6.31-4.98,2.56-1.2,5.36-1.81,8.42-1.81,5.82,0,10.52,1.84,14.11,5.51Z"/>
    <path class="cls-2" d="M399.03,180.77c2.88,1.62,5.13,4,6.75,7.14,1.62,3.15,2.43,6.92,2.43,11.33v28.66h-12.35v-26.98c0-3.88-.97-6.86-2.91-8.95-1.94-2.09-4.58-3.13-7.94-3.13s-6.1,1.04-8.07,3.13c-1.97,2.09-2.95,5.07-2.95,8.95v26.98h-12.35v-65.25h12.35v22.48c1.59-2.12,3.7-3.78,6.35-4.98,2.65-1.2,5.58-1.81,8.82-1.81,3.7,0,6.99.81,9.88,2.42Z"/>
    <path class="cls-2" d="M464.98,206.38h-35.71c.29,3.53,1.53,6.29,3.7,8.29,2.17,2,4.85,3,8.02,3,4.59,0,7.85-1.97,9.79-5.91h13.31c-1.41,4.7-4.12,8.57-8.11,11.59-4,3.03-8.91,4.54-14.72,4.54-4.7,0-8.92-1.04-12.65-3.13-3.73-2.09-6.64-5.04-8.73-8.86-2.09-3.82-3.13-8.23-3.13-13.23s1.03-9.49,3.09-13.31c2.06-3.82,4.94-6.76,8.64-8.82,3.7-2.06,7.97-3.09,12.79-3.09s8.8,1,12.48,3c3.67,2,6.53,4.84,8.55,8.51,2.03,3.67,3.04,7.89,3.04,12.65,0,1.76-.12,3.35-.35,4.76ZM452.55,198.09c-.06-3.17-1.21-5.72-3.44-7.63-2.23-1.91-4.97-2.87-8.2-2.87-3.06,0-5.63.93-7.72,2.78-2.09,1.85-3.37,4.42-3.84,7.72h23.19Z"/>
    <path class="cls-2" d="M492.89,180.55c2.56-1.47,5.48-2.2,8.77-2.2v12.96h-3.26c-3.88,0-6.8.91-8.77,2.73-1.97,1.82-2.95,5-2.95,9.52v24.34h-12.34v-48.85h12.34v7.58c1.59-2.59,3.66-4.61,6.22-6.08Z"/>
    <path class="cls-2" d="M510.79,171.15c-1.44-1.38-2.16-3.1-2.16-5.16s.72-3.78,2.16-5.16c1.44-1.38,3.25-2.07,5.42-2.07s3.98.69,5.42,2.07c1.44,1.38,2.16,3.1,2.16,5.16s-.72,3.78-2.16,5.16c-1.44,1.38-3.25,2.07-5.42,2.07s-3.98-.69-5.42-2.07ZM522.29,179.05v48.85h-12.34v-48.85h12.34Z"/>
    <path class="cls-2" d="M609.63,183.85c3.67,3.67,5.51,8.8,5.51,15.39v28.66h-12.34v-26.98c0-3.82-.97-6.75-2.91-8.77-1.94-2.03-4.59-3.04-7.94-3.04s-6.01,1.01-7.98,3.04c-1.97,2.03-2.95,4.95-2.95,8.77v26.98h-12.35v-26.98c0-3.82-.97-6.75-2.91-8.77-1.94-2.03-4.58-3.04-7.94-3.04s-6.1,1.01-8.07,3.04c-1.97,2.03-2.95,4.95-2.95,8.77v26.98h-12.34v-48.85h12.34v5.91c1.59-2.06,3.63-3.67,6.13-4.85,2.5-1.17,5.25-1.76,8.24-1.76,3.82,0,7.23.81,10.23,2.42,3,1.62,5.32,3.92,6.97,6.92,1.59-2.82,3.89-5.08,6.92-6.79,3.03-1.7,6.31-2.56,9.83-2.56,6,0,10.83,1.84,14.5,5.51Z"/>
  </g>
  <path class="cls-1" d="M349.39,132.02v-45.13c0-.42.18-.81.46-1.01l58.49-41.35c.58-.41,1.29.14,1.29,1.01v86.48c0,6.58-4.22,11.92-9.43,11.92h-41.38c-5.21,0-9.43-5.33-9.43-11.92ZM289.68,143.93h41.38c5.21,0,9.43-3.86,9.43-8.62v-62.54c0-.63-.71-1.03-1.29-.73l-58.49,29.9c-.28.14-.46.42-.46.73v32.64c0,4.76,4.22,8.62,9.43,8.62ZM220.53,143.93h41.38c5.21,0,9.43-4.12,9.43-9.21v-66.85c0-.67-.71-1.1-1.29-.78l-58.49,31.96c-.28.15-.46.45-.46.78v34.89c0,5.09,4.22,9.21,9.43,9.21ZM214.68,81.52l55.33-31.32c1.45-.82,1.78-2.92.65-4.2l-29.18-33.16c-9.69-11.02-26.91-4.05-27.66,11.2l-2.72,54.99c-.1,2.05,1.89,3.44,3.58,2.48ZM403.83,40.13l5.71-25.77c.51-2.29-.97-4.31-3.31-4.52l-26.29-2.36c-3.76-.34-6.63,3.95-4.55,6.8l4.14,5.65-34.52,21.98c-2.98,1.9-3.96,5.66-2.12,8.17l9.13,12.48c1.84,2.51,5.71,2.72,8.43.45l31.4-26.25,4.14,5.65c2.08,2.85,7.04,1.41,7.86-2.28Z"/>
</svg>