<svg xmlns="http://www.w3.org/2000/svg" viewBox="0 0 339.41 339.41">
  <g transform="translate(0, 52.03)">
    <path fill="#18a7bc" d="M232.9,211.16v-74.51c0-.7.29-1.33.76-1.67l96.56-68.26c.96-.68,2.14.23,2.14,1.67v142.77c0,10.86-6.97,19.67-15.57,19.67h-68.32c-8.6,0-15.57-8.81-15.57-19.67ZM134.31,230.83h68.32c8.6,0,15.57-6.37,15.57-14.23v-103.24c0-1.04-1.17-1.7-2.14-1.2l-96.56,49.36c-.47.24-.76.7-.76,1.2v53.88c0,7.86,6.97,14.23,15.57,14.23ZM20.16,230.83h68.32c8.6,0,15.57-6.81,15.57-15.21v-110.37c0-1.11-1.17-1.81-2.14-1.29L5.35,156.74c-.47.26-.76.75-.76,1.29v57.6c0,8.4,6.97,15.21,15.57,15.21ZM10.5,127.79l91.35-51.71c2.4-1.36,2.94-4.82,1.08-6.93L54.76,14.4C38.76-3.79,10.34,7.72,9.09,32.9l-4.5,90.79c-.17,3.39,3.12,5.68,5.9,4.1ZM322.76,59.45l9.42-42.55c.84-3.77-1.61-7.11-5.46-7.46l-43.4-3.9c-6.21-.56-10.95,6.52-7.51,11.22l6.83,9.33-57,36.29c-4.93,3.14-6.54,9.34-3.5,13.48l15.07,20.6c3.03,4.15,9.43,4.49,13.91.74l51.84-43.34,6.83,9.33c3.44,4.7,11.62,2.32,12.97-3.76Z"/>
  </g>
</svg>
