<svg width="60" height="60" viewBox="0 0 60 60" fill="none" xmlns="http://www.w3.org/2000/svg">
<rect width="60" height="60" fill="url(#paint0_linear_42_79)"/>
<path d="M28.6426 39.0883L25.9146 40.6533C25.5249 40.849 25.5249 41.0446 25.5249 41.4359V51.4131C25.5249 51.8044 25.7197 52 25.9146 52H28.6426V39.0883ZM33.709 36.1538L30.2015 38.1101H30.0066V51.6087H33.9038C34.1105 51.6087 34.3088 51.5263 34.455 51.3795C34.6011 51.2328 34.6833 51.0337 34.6833 50.8262V36.7407C34.7223 36.6151 34.7182 36.4799 34.6715 36.3569C34.6248 36.234 34.5384 36.1303 34.426 36.0626C34.3136 35.9949 34.1818 35.9671 34.0517 35.9836C33.9217 36.0002 33.801 36.0601 33.709 36.1538ZM28.2529 16.5906C25.3763 16.5684 22.5045 16.8305 19.6791 17.3731C21.1916 15.3989 23.1412 13.8054 25.3734 12.7188C27.6056 11.6323 30.0592 11.0824 32.5398 11.1129C36.3344 11.1129 40.0265 12.3485 43.0622 14.6343C43.4519 15.0255 43.8416 15.2212 44.2313 14.8299C44.3143 14.7565 44.3807 14.6661 44.4262 14.565C44.4717 14.4638 44.4952 14.354 44.4952 14.243C44.4952 14.132 44.4717 14.0222 44.4262 13.921C44.3807 13.8198 44.3143 13.7295 44.2313 13.6561C42.4879 11.5219 40.2835 9.81391 37.7853 8.66151C35.2871 7.50912 32.5604 6.94252 29.8118 7.0046C26.1233 7.0714 22.5388 8.24311 19.5182 10.3694C16.4976 12.4957 14.1787 15.4795 12.859 18.9382L6.62355 21.4814C6.10392 21.8726 5.90907 22.2639 6.03897 22.6552C6.07834 22.7679 6.14288 22.87 6.22765 22.9538C6.31241 23.0376 6.41516 23.1008 6.52801 23.1386C6.64086 23.1763 6.76082 23.1877 6.87871 23.1717C6.9966 23.1557 7.10928 23.1129 7.20813 23.0464C8.80253 22.541 10.4304 22.1488 12.0796 21.8726C11.9099 22.775 11.8445 23.6941 11.8847 24.6115C11.8322 27.7217 12.5749 30.7936 14.0418 33.5335C15.5087 36.2735 17.6509 38.5901 20.2637 40.2621C20.6534 40.4577 21.238 40.4577 21.4328 40.0664C21.6277 39.6752 21.6277 39.2839 21.238 38.8926C19.6078 37.4126 18.3122 35.5993 17.4383 33.5747C16.5645 31.55 16.1325 29.3609 16.1716 27.1547C16.1112 25.0502 16.5803 22.9644 17.5357 21.0901L22.9917 20.6989C36.2421 20.6989 47.5439 25.1984 47.5439 30.8717C47.5439 36.5451 43.8416 36.7407 39.3599 38.697C38.3856 39.0883 38.3856 39.4795 38.3856 39.8708C38.3856 40.2621 38.9702 40.4577 39.5547 40.2621C47.3491 37.9145 53 33.6106 53 28.7198C53 23.829 42.0879 16.5906 28.2529 16.5906Z" fill="white"/>
<defs>
<linearGradient id="paint0_linear_42_79" x1="0" y1="30" x2="60" y2="30" gradientUnits="userSpaceOnUse">
<stop stop-color="#CC092F"/>
<stop offset="0.4" stop-color="#CC092F"/>
<stop offset="0.9" stop-color="#B81570"/>
<stop offset="1" stop-color="#B81570"/>
</linearGradient>
</defs>
</svg>
