<svg width="60" height="60" viewBox="0 0 60 60" fill="none" xmlns="http://www.w3.org/2000/svg">
<rect width="60" height="60" fill="#001E61"/>
<path fill-rule="evenodd" clip-rule="evenodd" d="M40.2704 28.6084L40.795 25.988H36.2791V22.4083L33.109 22.8994V33.5915C33.109 37.2879 34.5226 38.3879 38.3771 38.3879H40.0646L40.5895 35.7906H38.6051C36.8492 35.7906 36.2788 35.3466 36.2788 33.3808V28.6084H40.2704ZM18.4898 21.1679V32.656C18.4898 36.9142 20.4053 38.6922 24.5791 38.6922C28.9124 38.6922 30.8282 36.961 30.8282 32.6791V31.5797C30.8282 27.5556 29.049 25.59 25.1721 25.59C23.9404 25.59 22.5947 25.8472 21.6824 26.5724V20.6532L18.4898 21.1679ZM24.693 28.1634C26.8824 28.1634 27.6581 29.0526 27.6581 31.6962V32.6791C27.6581 35.2524 26.8824 36.142 24.6475 36.142C22.4125 36.142 21.6365 35.2524 21.6365 32.6557V31.3222C21.6365 28.959 22.4125 28.1634 24.693 28.1634ZM47.9334 25.59C43.7596 25.59 41.8438 27.3914 41.8438 31.5092V32.141C41.8438 36.0481 43.5088 37.9431 47.4313 37.9431C48.6858 37.9431 49.9403 37.7096 50.8296 36.9839V37.4523C50.8296 39.6517 49.8948 40.3762 47.7051 40.3762H46.3942C45.6449 40.3899 45.3044 40.5265 44.8528 41.2859L44.8503 41.2847C41.0897 47.3901 34.561 51.1199 27.4459 51.1199C16.0935 51.1199 6.85793 41.6459 6.85793 29.9999C6.85793 18.3541 16.0935 8.88007 27.4459 8.88007C35.42 8.88007 42.6742 13.6174 46.0681 20.9896H47.0141C43.5552 13.0954 35.8872 8 27.4459 8C15.6208 8 6 17.8692 6 29.9999C6 42.1308 15.6208 52 27.4459 52C34.4004 52 40.8184 48.5795 44.8194 42.903H47.8876C51.9245 42.903 54 41.3357 54 37.335V31.2988C54 27.3212 52.0159 25.59 47.9334 25.59ZM50.8527 32.5386C50.8527 34.738 50.1 35.4163 47.9337 35.4163C45.4929 35.4163 45.0141 34.5507 45.0141 32.0008V31.6031C45.0141 29.0758 45.4474 28.1634 47.9334 28.1634C50.3736 28.1634 50.8527 29.0526 50.8527 31.6262V32.5386Z" fill="white"/>
</svg>
