<svg width="60" height="60" viewBox="0 0 60 60" fill="none" xmlns="http://www.w3.org/2000/svg">
<rect width="60" height="60" fill="black"/>
<path d="M22.2052 33.7135C23.0438 33.0042 23.5903 32.0719 23.8479 30.9177H32.1262C31.7467 34.2167 30.3724 36.8875 28.0043 38.9323C25.635 40.9771 22.7182 42 19.256 42C16.7305 42 14.4572 41.4635 12.4351 40.3917C10.4129 39.3198 8.83488 37.8302 7.70093 35.9229C6.56698 34.0156 6 31.875 6 29.5C6 27.125 6.56698 24.9844 7.70093 23.0771C8.83488 21.1698 10.4129 19.6802 12.4351 18.6083C14.4572 17.5354 16.7305 17 19.256 17C22.6633 17 25.5402 17.9865 27.8868 19.9604C30.2323 21.9333 31.6185 24.5198 32.0421 27.7188H23.8824C23.5364 26.6635 22.9446 25.8146 22.106 25.1708C21.2685 24.5281 20.3296 24.2063 19.2905 24.2063C17.8601 24.2063 16.7068 24.6927 15.8305 25.6656C14.952 26.6385 14.5143 27.9167 14.5143 29.499C14.5143 31.0719 14.9563 32.3448 15.838 33.3177C16.7219 34.2906 17.8709 34.776 19.2905 34.776C20.3964 34.776 21.3676 34.4219 22.2052 33.7135ZM51.5887 27.2135C53.1959 28.7031 54 30.6302 54 32.9917C54 35.6917 53.0752 37.8688 51.2244 39.5208C49.3726 41.174 46.9344 42 43.9055 42C40.9132 42 38.4804 41.1708 36.6059 39.5125C34.7304 37.8531 33.7937 35.7042 33.7937 33.0615C33.7937 31.6188 34.0513 30.1667 34.5654 28.7063C35.0796 27.2458 35.8751 25.6479 36.9519 23.9146L40.7569 17.8L48.798 17.799L44.2957 25.0135C44.7451 24.9906 45.0998 24.9792 45.3606 24.9792C47.9034 24.9792 49.9794 25.724 51.5887 27.2135ZM46.1593 35.2083C46.7382 34.6385 47.0281 33.9 47.0281 32.9917C47.0281 32.0844 46.7382 31.3396 46.1593 30.7573C45.5794 30.175 44.8281 29.8844 43.9065 29.8844C42.9839 29.8844 42.2315 30.176 41.6537 30.7573C41.0727 31.3396 40.7839 32.0844 40.7839 32.9917C40.7839 33.9 41.0727 34.6385 41.6526 35.2083C42.2315 35.7792 42.9839 36.0646 43.9055 36.0646C44.8281 36.0646 45.5805 35.7792 46.1593 35.2083Z" fill="white"/>
</svg>
