<svg width="60" height="60" viewBox="0 0 60 60" fill="none" xmlns="http://www.w3.org/2000/svg">
<rect width="60" height="60" fill="#00BCFF"/>
<path d="M30.0597 13.6422C16.4761 13.6422 5.45813 20.7066 5.45813 29.3995C5.45813 38.0924 16.4761 45.845 30.0597 45.845C43.6432 45.845 54.6612 38.1154 54.6612 29.3995C54.6612 20.6837 43.6432 13.6422 30.0597 13.6422Z" fill="#00BCFF"/>
<path d="M22.0424 24.537C22.0195 24.5599 21.7904 24.8122 21.9507 25.0186C22.3402 25.5003 23.5084 25.7755 24.6995 25.5232C25.4096 25.3627 26.303 24.6517 27.1963 23.9406C28.1584 23.1837 29.0976 22.4268 30.0367 22.1287C31.0446 21.8075 31.686 21.9452 32.1212 22.0828C32.5793 22.2204 33.1291 22.5415 34.0225 23.1837C35.6717 24.4223 42.2917 30.2252 43.4599 31.2115C44.3762 30.7986 48.7742 29.0096 54.3405 27.7939C53.8595 24.8122 52.0728 21.991 49.324 19.7662C45.4986 21.3717 40.5279 22.3351 35.9466 20.1102C35.9237 20.1102 33.4498 18.9405 31.0217 18.9864C27.4025 19.0781 25.8219 20.6378 24.1727 22.3121L22.0424 24.537Z" fill="white"/>
<path d="M43.1621 31.8308C43.0934 31.762 35.3739 24.9957 33.6101 23.6884C32.6023 22.9315 32.0296 22.725 31.434 22.6562C31.1362 22.6103 30.701 22.6791 30.4032 22.748C29.5786 22.9773 28.5249 23.6884 27.5857 24.4223C26.6008 25.2022 25.6845 25.9361 24.837 26.1196C23.7375 26.3719 22.4089 26.0737 21.7904 25.6609C21.5384 25.5003 21.3781 25.2939 21.2865 25.1104C21.0574 24.5829 21.4697 24.17 21.5384 24.1012L23.6687 21.7846C23.9207 21.5323 24.1727 21.28 24.4246 21.0507C23.7375 21.1424 23.0961 21.3259 22.4776 21.4865C21.6988 21.6929 20.9658 21.8993 20.2099 21.8993C19.8892 21.8993 18.217 21.6241 17.8963 21.5323C15.9722 21.0048 13.7731 20.5002 11.2534 19.3075C8.22977 21.5553 6.25981 24.3306 5.66425 27.4499C6.09947 27.5646 7.24479 27.8169 7.54258 27.8857C14.3916 29.4225 16.5219 30.9821 16.9113 31.3033C17.3236 30.8445 17.9421 30.5463 18.6064 30.5463C19.3623 30.5463 20.0495 30.9363 20.4618 31.5097C20.8512 31.1886 21.401 30.9363 22.0882 30.9363C22.4089 30.9363 22.7296 31.0051 23.0732 31.0968C23.852 31.3721 24.2414 31.8767 24.4476 32.3354C24.6995 32.2207 25.0202 32.129 25.4096 32.129C25.7761 32.129 26.1655 32.2207 26.5549 32.3813C27.8148 32.9317 28.021 34.1703 27.9064 35.1107C27.9981 35.1107 28.0897 35.0878 28.1813 35.0878C29.6702 35.0878 30.9072 36.3034 30.9072 37.8172C30.9072 38.2759 30.7926 38.7117 30.5865 39.1016C30.9988 39.331 32.0296 39.8585 32.9459 39.7439C33.6789 39.6521 33.9537 39.3998 34.0454 39.2622C34.1141 39.1704 34.1828 39.0558 34.1141 38.964L32.1899 36.808C32.1899 36.808 31.8693 36.5098 31.9838 36.3951C32.0983 36.2805 32.2816 36.441 32.419 36.5557C33.404 37.3814 34.5951 38.62 34.5951 38.62C34.618 38.6429 34.6868 38.7805 35.1449 38.8723C35.5343 38.9411 36.1986 38.8952 36.6796 38.5053C36.7941 38.4135 36.9087 38.2759 37.0232 38.1612L37.0003 38.1842C37.5042 37.542 36.9545 36.8997 36.9545 36.8997L34.6867 34.3538C34.6867 34.3538 34.3661 34.0556 34.4806 33.9409C34.5722 33.8263 34.7784 33.9868 34.9387 34.1015C35.6488 34.6978 36.6567 35.707 37.6417 36.6704C37.8249 36.808 38.6725 37.3355 39.8178 36.6016C40.505 36.1428 40.6424 35.5924 40.6195 35.1795C40.5737 34.629 40.1385 34.2391 40.1385 34.2391L37.0461 31.1427C37.0461 31.1427 36.7254 30.8675 36.84 30.7298C36.9316 30.6152 37.1377 30.7757 37.2752 30.8904C38.2602 31.7161 40.9173 34.1474 40.9173 34.1474C40.9631 34.1703 41.8794 34.8355 43.0018 34.1015C43.4141 33.8492 43.6661 33.4593 43.689 33.0005C43.7119 32.2895 43.1621 31.8308 43.1621 31.8308Z" fill="white"/>
<path d="M28.2042 35.7529C27.7232 35.7529 27.1963 36.0282 27.1276 35.9823C27.0818 35.9594 27.1505 35.7759 27.1963 35.6612C27.2421 35.5465 27.8606 33.6657 26.3488 33.0006C25.1806 32.496 24.4476 33.0694 24.2185 33.3217C24.1498 33.3905 24.1269 33.3905 24.1269 33.2987C24.104 32.9547 23.9436 32.0372 22.9357 31.7161C21.4926 31.2803 20.5535 32.2895 20.3244 32.6565C20.2099 31.8308 19.5227 31.1886 18.6751 31.1886C17.736 31.1886 17.0029 31.9455 16.98 32.863C16.98 33.8033 17.736 34.5373 18.6522 34.5373C19.1103 34.5373 19.5227 34.3538 19.8204 34.0786C19.8204 34.0786 19.8433 34.1015 19.8204 34.1245C19.7517 34.5373 19.6143 36.0511 21.1948 36.6704C21.8362 36.9227 22.3631 36.7392 22.8212 36.4181C22.9586 36.3264 22.9815 36.3722 22.9586 36.4869C22.8899 36.8768 22.9815 37.7025 24.1498 38.1842C25.0431 38.5512 25.57 38.1842 25.9136 37.8631C26.0739 37.7255 26.0968 37.7484 26.1197 37.9548C26.1655 39.0787 27.1047 39.9732 28.2271 39.9732C29.3953 39.9732 30.3345 39.0329 30.3345 37.8631C30.3116 36.7163 29.3724 35.7759 28.2042 35.7529Z" fill="white"/>
<path d="M30.0597 13C16.2242 13 5 20.3626 5 29.4225C5 29.6518 5 30.2941 5 30.3858C5 39.9732 14.804 47.7487 30.0597 47.7487C45.3154 47.7487 55.1194 39.9732 55.1194 30.3858V29.4225C55.1194 20.3626 43.8952 13 30.0597 13ZM53.974 27.5876C48.5223 28.8032 44.4679 30.5693 43.4371 31.0051C41.0548 28.9179 35.5572 24.1471 34.0683 23.0232C33.2208 22.381 32.6481 22.037 32.1213 21.8993C31.8922 21.8305 31.5715 21.7617 31.1592 21.7617C30.7698 21.7617 30.3804 21.8305 29.9451 21.9681C28.9831 22.2663 28.021 23.0462 27.1047 23.7801V23.8031C26.2343 24.4912 25.3409 25.2022 24.6767 25.3627C24.3789 25.4315 24.0811 25.4545 23.7833 25.4545C23.0274 25.4545 22.3402 25.2251 22.0882 24.904C22.0424 24.8581 22.0653 24.7664 22.1799 24.6288L22.2028 24.6058L24.2873 22.3581C25.9365 20.7066 27.4712 19.1699 31.0447 19.0782C31.1134 19.0782 31.1592 19.0782 31.2279 19.0782C33.4498 19.0782 35.6718 20.0644 35.9008 20.1791C37.9853 21.1883 40.1156 21.7158 42.2917 21.7158C44.5366 21.7158 46.8501 21.1654 49.2782 20.0415C51.775 22.1975 53.4701 24.7893 53.974 27.5876ZM30.0597 13.9633C37.4127 13.9633 43.9868 16.0735 48.4078 19.3993C46.2775 20.3167 44.2388 20.7984 42.2688 20.7984C40.2531 20.7984 38.2373 20.3167 36.2902 19.3534C36.1986 19.3075 33.7476 18.1378 31.1821 18.1378C31.1134 18.1378 31.0447 18.1378 30.9759 18.1378C27.9752 18.2066 26.303 19.2616 25.1577 20.202C24.0582 20.225 23.0961 20.5002 22.2486 20.7296C21.4927 20.936 20.8513 21.1195 20.2099 21.1195C19.9579 21.1195 19.4769 21.0966 19.4311 21.0966C18.6981 21.0736 15.033 20.1791 12.101 19.0782C16.5449 15.9359 22.9358 13.9633 30.0597 13.9633ZM11.2764 19.7204C14.3229 20.9819 18.0338 21.9452 19.2249 22.014C19.5456 22.037 19.8892 22.0828 20.2557 22.0828C21.0345 22.0828 21.8134 21.8535 22.5693 21.647C23.0045 21.5324 23.5084 21.3947 24.0124 21.2801C23.8749 21.4177 23.7375 21.5553 23.6001 21.6929L21.4698 23.9865C21.3094 24.1471 20.9429 24.6058 21.172 25.1563C21.2636 25.3857 21.4698 25.5921 21.7217 25.7756C22.2257 26.1196 23.1419 26.349 23.9666 26.349C24.2873 26.349 24.585 26.3261 24.8599 26.2573C25.7533 26.0508 26.6924 25.3169 27.6774 24.5141C28.4562 23.8948 29.5786 23.092 30.4491 22.8627C30.7011 22.7939 30.9759 22.748 31.2279 22.748C31.2966 22.748 31.3653 22.748 31.4341 22.7709C32.0067 22.8397 32.5565 23.0462 33.5186 23.7801C35.2595 25.0875 42.9789 31.8537 43.0477 31.9226C43.0477 31.9226 43.5516 32.3583 43.5058 33.0694C43.4829 33.4593 43.2767 33.8033 42.8873 34.0556C42.5666 34.2621 42.223 34.3768 41.8794 34.3768C41.3526 34.3768 41.009 34.1245 40.9861 34.1245C40.9632 34.1015 38.306 31.6703 37.3439 30.8445C37.1836 30.7069 37.0462 30.5922 36.8858 30.5922C36.7942 30.5922 36.7255 30.6381 36.6797 30.684C36.5193 30.8675 36.7026 31.1427 36.9087 31.3033L40.0011 34.4226C40.0011 34.4226 40.3905 34.7896 40.4363 35.2713C40.4592 35.7759 40.2072 36.2117 39.7033 36.5557C39.3368 36.808 38.9703 36.9227 38.6038 36.9227C38.1228 36.9227 37.8021 36.7163 37.7333 36.6475L37.2981 36.2117C36.4964 35.4089 35.6489 34.5832 35.0304 34.0786C34.87 33.9639 34.7326 33.8492 34.5723 33.8492C34.5035 33.8492 34.4348 33.8722 34.3661 33.941C34.2974 34.0098 34.2516 34.1474 34.4119 34.3997C34.4806 34.4914 34.5723 34.5832 34.5723 34.5832L36.8171 37.1291C36.84 37.1521 37.2752 37.6796 36.8629 38.2071L36.7713 38.2989C36.7026 38.3677 36.6338 38.4365 36.5651 38.5053C36.1757 38.8264 35.6718 38.8494 35.4656 38.8494C35.3511 38.8494 35.2595 38.8494 35.1678 38.8264C34.9388 38.7805 34.8013 38.7347 34.7326 38.6429L34.7097 38.62C34.5952 38.4824 33.4498 37.3356 32.5107 36.5557C32.3961 36.441 32.2358 36.3263 32.0755 36.3263C32.0067 36.3263 31.938 36.3493 31.8693 36.4181C31.686 36.6245 31.9609 36.9227 32.0755 37.0374L33.9996 39.1705C33.9996 39.1934 33.9767 39.2393 33.9309 39.3081C33.8622 39.3998 33.6331 39.6292 32.923 39.7209C32.8314 39.7209 32.7626 39.7439 32.671 39.7439C31.9609 39.7439 31.1821 39.3998 30.7927 39.1934C30.9759 38.8035 31.0676 38.3906 31.0676 37.9778C31.0676 36.3952 29.7848 35.1107 28.2043 35.1107C28.1814 35.1107 28.1355 35.1107 28.1126 35.1107C28.1584 34.3767 28.0668 33.0235 26.6466 32.4042C26.2343 32.2207 25.8449 32.129 25.4555 32.129C25.1577 32.129 24.8599 32.1749 24.585 32.2895C24.2873 31.7161 23.8062 31.3033 23.1877 31.0968C22.8441 30.9822 22.5005 30.9134 22.1569 30.9134C21.5614 30.9134 21.0345 31.0968 20.5535 31.418C20.0954 30.8445 19.4082 30.5005 18.6752 30.5005C18.0338 30.5005 17.4153 30.7528 16.9572 31.2115C16.3616 30.7528 13.9793 29.239 7.63424 27.794C7.33646 27.7252 6.64927 27.5188 6.21404 27.4041C6.7638 24.4912 8.57341 21.8764 11.2764 19.7204ZM23.0503 36.3034L22.9816 36.2346H22.9129C22.867 36.2346 22.7983 36.2575 22.7296 36.3034C22.4089 36.5328 22.0882 36.6475 21.7904 36.6475C21.6072 36.6475 21.4468 36.6016 21.2636 36.5557C19.7976 35.9823 19.9121 34.5832 19.9808 34.1703C19.9808 34.0786 19.9808 34.0098 19.9121 33.9639L19.7976 33.8721L19.706 33.9639C19.4082 34.2391 19.0417 34.3997 18.6523 34.3997C17.8047 34.3997 17.1175 33.7116 17.1175 32.8629C17.1175 32.0143 17.8047 31.3262 18.6523 31.3262C19.4082 31.3262 20.0725 31.8996 20.1641 32.6565L20.2099 33.0694L20.439 32.7253C20.4619 32.6795 21.0803 31.7391 22.2257 31.7391C22.4318 31.7391 22.6609 31.7849 22.89 31.8537C23.8062 32.129 23.9437 32.9547 23.9666 33.2987C23.9895 33.5052 24.1269 33.5052 24.1498 33.5052C24.2185 33.5052 24.2873 33.4593 24.3331 33.4134C24.4934 33.2299 24.8828 32.9318 25.4555 32.9318C25.7304 32.9318 26.0052 33.0006 26.303 33.1152C27.7461 33.7345 27.0818 35.5694 27.0818 35.5924C26.9673 35.8906 26.9444 36.0282 27.0589 36.097L27.1047 36.1199H27.1506C27.2193 36.1199 27.288 36.097 27.4254 36.0511C27.6316 35.9823 27.9065 35.8906 28.2043 35.8906C29.2809 35.9135 30.1742 36.7851 30.1742 37.8631C30.1742 38.9411 29.2809 39.8356 28.2043 39.8356C27.1506 39.8356 26.2801 39.0099 26.2343 37.9548C26.2343 37.8631 26.2114 37.6337 26.0281 37.6337C25.9365 37.6337 25.8678 37.6796 25.7991 37.7484C25.57 37.9548 25.2722 38.1842 24.837 38.1842C24.6308 38.1842 24.4247 38.1383 24.1956 38.0466C23.0732 37.5879 23.0503 36.8309 23.0961 36.5098C23.0961 36.441 23.119 36.3722 23.0503 36.3034ZM30.0597 44.8358C16.751 44.8358 5.96207 37.9319 5.96207 29.3995C5.96207 29.0555 5.98498 28.7115 6.03079 28.3674C6.14532 28.3903 7.19902 28.6426 7.40518 28.6885C13.8877 30.1335 16.0409 31.6244 16.4074 31.9226C16.2929 32.2207 16.2242 32.5418 16.2242 32.8629C16.2242 34.2162 17.3237 35.2942 18.6523 35.2942C18.8126 35.2942 18.95 35.2713 19.1104 35.2483C19.3165 36.2346 19.9579 36.9915 20.9429 37.3814C21.2407 37.4961 21.5156 37.542 21.8134 37.542C21.9966 37.542 22.1799 37.519 22.3631 37.4732C22.5464 37.9319 22.9587 38.5053 23.8749 38.8952C24.1956 39.0328 24.5163 39.1017 24.837 39.1017C25.089 39.1017 25.3409 39.0558 25.57 38.964C26.0052 40.0421 27.0589 40.7531 28.2272 40.7531C29.006 40.7531 29.739 40.432 30.2887 39.8815C30.7469 40.1338 31.7319 40.6155 32.7168 40.6155C32.8543 40.6155 32.9688 40.6155 33.0833 40.5925C34.0683 40.4778 34.5264 40.0879 34.7326 39.7898C34.7784 39.7439 34.8013 39.6751 34.8242 39.6292C35.0533 39.698 35.3053 39.7439 35.6031 39.7439C36.1299 39.7439 36.6567 39.5604 37.1836 39.1934C37.6875 38.8264 38.054 38.2989 38.0999 37.8402V37.8172C38.2831 37.8631 38.4435 37.8631 38.6267 37.8631C39.1765 37.8631 39.7262 37.7025 40.2302 37.3585C41.238 36.6933 41.3984 35.8447 41.3984 35.2942C41.5816 35.3401 41.742 35.3401 41.9252 35.3401C42.4521 35.3401 42.956 35.1795 43.4371 34.8814C44.0555 34.4914 44.422 33.8721 44.4908 33.1611C44.5366 32.6795 44.3991 32.1978 44.1472 31.7849C45.8193 31.0739 49.6447 29.6748 54.1344 28.6426C54.1573 28.8949 54.1573 29.1472 54.1573 29.4225C54.1573 37.9319 43.3683 44.8358 30.0597 44.8358Z" fill="#0A0080"/>
</svg>
