<svg width="60" height="60" viewBox="0 0 60 60" fill="none" xmlns="http://www.w3.org/2000/svg">
<g clip-path="url(#clip0_42_175)">
<rect width="60" height="60" fill="#820AD1"/>
<path d="M14.6664 18.5389C16.1846 16.9362 18.1984 16 20.5643 16C25.1733 16 28.2291 19.3814 28.8137 24.4471C29.0033 26.0921 29.0015 28.4114 28.9996 31.0977C28.9993 31.3732 28.9993 31.6526 28.9993 31.9355V41.9989H22.661V34.5557C22.661 34.5557 22.6481 28.1853 22.6094 26.9948C22.4393 21.8094 19.3843 18.5512 14.6658 18.5477C13.2422 20.059 12.4794 21.9069 12.3669 24.7324C12.3515 25.1265 12.3554 26.5233 12.3605 28.3643C12.3632 29.3182 12.3661 30.3913 12.3669 31.506C12.3716 36.3575 12.3669 42 12.3669 42H6.0287V30.5449C6.0287 30.1524 6.02157 29.7566 6.01443 29.3592C6.00006 28.5598 5.98557 27.7542 6.0287 26.9566C6.10031 25.6268 6.32923 24.3197 6.94673 23.1053C8.36017 20.3233 11.2563 18.5321 14.3439 18.5321C14.4517 18.5321 14.5597 18.5348 14.6664 18.5389Z" fill="white"/>
<path d="M53.9713 32.0456C54.0144 31.248 53.9999 30.4426 53.9856 29.6434C53.9784 29.246 53.9713 28.8503 53.9713 28.4578V17.0049H47.6328C47.6328 17.0049 47.628 22.6463 47.6328 27.4969C47.6335 28.6114 47.6365 29.6842 47.6391 30.6379C47.6443 32.4787 47.6482 33.8753 47.6328 34.2693C47.5203 37.0943 46.7574 38.9418 45.3337 40.4529C40.615 40.4496 37.56 37.1917 37.3898 32.0074C37.351 30.817 37.3346 27.8631 37.3346 24.4419V17L31.0008 17.0058V27.0674C31.0008 27.3503 31.0004 27.6295 31.0004 27.905C30.9984 30.5909 30.9968 32.9096 31.1863 34.5545C31.7698 39.6192 34.8257 43 39.435 43C41.8011 43 43.815 42.0639 45.3333 40.4615C45.44 40.4657 45.5479 40.4682 45.6557 40.4682C48.7434 40.4682 51.6398 38.6773 53.0533 35.8958C53.6709 34.6816 53.8997 33.3748 53.9713 32.0453L53.9713 32.0456Z" fill="white"/>
</g>
<defs>
<clipPath id="clip0_42_175">
<rect width="60" height="60" fill="white"/>
</clipPath>
</defs>
</svg>
