<svg width="60" height="60" viewBox="0 0 60 60" fill="none" xmlns="http://www.w3.org/2000/svg">
<rect width="60" height="60" fill="white"/>
<g clip-path="url(#clip0_42_194)">
<path d="M29.4609 52.9601C16.6547 52.9601 6.23615 42.7032 6.23615 30.0943C6.23615 17.4847 16.6547 7.22632 29.4609 7.22632C42.2671 7.22632 52.6857 17.4847 52.6857 30.094C52.6857 42.7032 42.2671 52.9601 29.4609 52.9601Z" fill="black"/>
<path d="M48.772 26.9945C48.772 37.4967 40.1253 46.0085 29.461 46.0085C18.7948 46.0085 10.15 37.497 10.15 26.9945C10.15 16.4941 18.7948 7.98041 29.461 7.98041C40.1272 7.98041 48.772 16.4941 48.772 26.9945Z" fill="#DDE05B"/>
<path d="M29.4609 46.4958C18.4123 46.4958 9.42212 37.6454 9.42212 26.767C9.42212 15.8887 18.4127 7.03638 29.4609 7.03638C40.5092 7.03638 49.4998 15.8868 49.4998 26.767C49.4998 37.6454 40.5092 46.4958 29.4609 46.4958ZM29.4609 8.46586C19.213 8.46586 10.8758 16.6752 10.8758 26.767C10.8758 36.857 19.213 45.0645 29.4609 45.0645C39.7089 45.0645 48.0461 36.857 48.0461 26.7667C48.0461 16.6763 39.7085 8.46623 29.4609 8.46623V8.46586Z" fill="black"/>
<path d="M41.8994 39.0091C41.2352 42.0612 39.6667 44.8508 37.3924 47.0253C35.118 49.1997 32.2399 50.6614 29.122 51.2254C26.0041 51.7894 22.7863 51.4305 19.8755 50.1941C16.9647 48.9576 14.4916 46.8991 12.7689 44.2788C10.4593 40.7646 9.66185 36.4911 10.5519 32.398C11.4545 28.317 13.9633 24.7546 17.5285 22.4915C21.0938 20.2284 25.4248 19.4491 29.5725 20.3243C33.7203 21.1996 37.3465 23.658 39.6567 27.1609C41.967 30.6639 42.7728 34.9256 41.8976 39.0125L41.8994 39.0091Z" fill="#9ED5D6"/>
<path d="M26.2606 52.2056C25.0691 52.2049 23.8809 52.08 22.7161 51.8331C20.5625 51.3851 18.5206 50.5211 16.7084 49.291C14.8962 48.0609 13.3498 46.4892 12.1585 44.6668C10.9576 42.8499 10.1347 40.8166 9.73753 38.6845C9.34033 36.5523 9.3767 34.3638 9.84455 32.2456C11.7784 23.3524 20.7033 17.6657 29.7377 19.572C38.7698 21.4784 44.5453 30.266 42.6092 39.1596C42.154 41.2803 41.2761 43.291 40.0261 45.0752C38.7762 46.8594 37.1791 48.3818 35.3275 49.554C32.6291 51.2827 29.4795 52.2038 26.2603 52.2056H26.2606ZM26.224 20.6343C19.1639 20.6343 12.801 25.4825 11.2635 32.5466C10.8373 34.4808 10.8049 36.479 11.1681 38.4257C11.5314 40.3723 12.2831 42.2286 13.3797 43.8873C14.467 45.5521 15.8789 46.9881 17.5336 48.1121C19.1882 49.2361 21.0529 50.0258 23.0195 50.4356C24.9841 50.8558 27.0138 50.8882 28.9912 50.5309C30.9686 50.1735 32.8543 49.4336 34.5393 48.3538C36.2305 47.2831 37.6892 45.8927 38.8308 44.263C39.9725 42.6334 40.7744 40.7969 41.1902 38.86C42.9572 30.7369 37.6841 22.7127 29.4323 20.971C28.378 20.7478 27.3024 20.6349 26.224 20.6343Z" fill="black"/>
<path d="M50.1732 36.3679C50.1732 38.9653 49.1253 41.4562 47.2601 43.2928C45.3948 45.1294 42.865 46.1612 40.2271 46.1612C37.5892 46.1612 35.0593 45.1294 33.1941 43.2928C31.3288 41.4562 30.2809 38.9653 30.2809 36.3679C30.2809 33.7706 31.3288 31.2797 33.1941 29.4431C35.0593 27.6065 37.5892 26.5747 40.2271 26.5747C42.865 26.5747 45.3948 27.6065 47.2601 29.4431C49.1253 31.2797 50.1732 33.7706 50.1732 36.3679Z" fill="#FFE72D"/>
<path d="M40.2276 46.8757C37.3983 46.8725 34.6859 45.7644 32.6852 43.7946C30.6846 41.8248 29.5591 39.1541 29.5557 36.3683C29.559 33.5825 30.6844 30.9118 32.685 28.9419C34.6855 26.972 37.398 25.8639 40.2272 25.8605C43.0565 25.864 45.7688 26.9721 47.7694 28.9419C49.77 30.9116 50.8955 33.5822 50.8991 36.3679C50.8954 39.1536 49.7699 41.8241 47.7695 43.7939C45.769 45.7637 43.0568 46.872 40.2276 46.8757ZM40.2276 27.2919C37.7835 27.2946 35.4402 28.2517 33.7118 29.9532C31.9833 31.6547 31.0108 33.9618 31.0075 36.3683C31.0106 38.775 31.983 41.0822 33.7113 42.784C35.4397 44.4858 37.783 45.4432 40.2272 45.4462C42.6717 45.4437 45.0152 44.4864 46.7437 42.7845C48.4722 41.0827 49.4443 38.7751 49.4469 36.3683C49.444 33.9617 48.4717 31.6545 46.7433 29.9529C45.0148 28.2513 42.6718 27.2943 40.2276 27.2919Z" fill="black"/>
</g>
<defs>
<clipPath id="clip0_42_194">
<rect width="47" height="46" fill="white" transform="translate(6 7)"/>
</clipPath>
</defs>
</svg>
