<svg width="60" height="60" viewBox="0 0 60 60" fill="none" xmlns="http://www.w3.org/2000/svg">
<rect width="60" height="60" fill="#1E2044"/>
<path fill-rule="evenodd" clip-rule="evenodd" d="M33.9006 32.9523C33.8053 30.8396 33.0145 29.5594 32.2329 28.7881H32.2424C33.2792 28.7881 34.7219 29.6979 34.7219 31.1535C34.7219 31.957 34.4496 32.5427 33.9006 32.9523ZM30.394 36.9986V34.9706C31.1429 34.9539 31.8215 34.8847 32.428 34.7653C32.1353 36.1452 31.3723 36.7996 30.394 36.9986ZM27.5639 34.6352C27.9462 34.769 28.4213 34.8772 29.0415 34.933V36.957C28.2945 36.6913 27.6494 35.9359 27.5639 34.6352ZM27.5537 28.7881H29.0415V33.6827C28.4864 33.609 27.993 33.4741 27.5537 33.2949V28.7881ZM25.2094 25.513C25.2094 24.7793 25.5441 24.144 26.2012 23.6855V27.273C25.5715 26.9095 25.2094 26.2419 25.2094 25.513ZM29.0415 19.8574V21.6958C28.5428 21.7099 28.0623 21.7633 27.6081 21.8539C27.7715 20.9392 28.2976 20.18 29.0415 19.8574ZM31.94 22.1426C31.5246 21.9966 31.0202 21.8483 30.394 21.7634V19.7767C31.1185 20.0151 31.7311 20.7615 31.94 22.1426ZM30.394 27.4998V22.9959C30.959 23.0747 31.5029 23.213 32.0145 23.4005C31.9619 25.3475 30.9764 27.1529 30.394 27.4998ZM27.5537 23.1087C27.9901 23.0034 28.4862 22.9397 29.0415 22.9241V27.5599H27.5537V23.1087ZM32.5568 33.5207C31.9611 33.6576 31.2407 33.7277 30.394 33.7427V28.8004C31.0123 28.943 32.558 30.4437 32.558 33.3824C32.558 33.429 32.5575 33.4751 32.5568 33.5207ZM32.0169 27.5599H31.949C32.6264 26.7174 33.1654 25.3831 33.3226 24.0266C33.7982 24.3145 34.2246 24.6473 34.5867 25.0126C34.7669 25.1946 34.8572 25.2855 34.9924 25.2855C35.2629 25.2855 35.3981 25.0581 35.2629 24.8306C34.9023 24.2393 34.7669 23.7389 34.7669 23.1021C34.7669 22.6927 34.9023 22.3288 34.9924 22.1013C35.0825 21.8739 34.9924 21.6464 34.7219 21.6464C34.4965 21.6464 34.4515 21.8284 34.3612 21.9649C34.1882 22.2706 33.8484 22.5336 33.3428 22.5542C33.1481 20.0961 31.9024 18.8923 30.6176 18.5602C31.0788 17.4522 32.2216 16.7721 33.73 16.4608C33.9555 16.4153 34.1359 16.3244 34.1359 16.1424C34.1359 15.915 33.9555 15.824 33.73 15.824C33.2342 15.824 32.5128 16.0969 31.9267 16.2789C31.0251 16.5518 30.2587 16.7337 29.5824 16.7337C28.1398 16.7337 26.8774 16.0969 26.4717 16.0969C26.2914 16.0969 26.1561 16.2333 26.1561 16.4153C26.1561 16.5518 26.2463 16.6882 26.5168 16.7793C27.7152 17.1715 28.4947 17.7984 28.8388 18.6434C28.1267 18.9072 27.5362 19.4437 27.1325 20.1447C26.6527 19.1687 26.0451 18.7353 25.1643 18.7353C24.3078 18.7353 23.6314 19.372 23.6314 20.1453C23.6314 20.6911 23.9922 21.1006 24.3979 21.1006C24.5782 21.1006 24.6684 21.0097 24.6684 20.8732C24.6684 20.6911 24.5782 20.6457 24.5782 20.3728C24.5782 20.0999 24.8036 19.8724 25.1643 19.8724C25.7053 19.8724 26.2012 20.4183 26.2012 21.9193V22.2932C24.783 22.9269 23.8569 24.0437 23.8569 25.5584C23.8569 27.1145 24.8739 28.2782 26.2012 28.6564V32.494C25.1899 31.6727 24.6235 30.6111 24.2626 29.8344C24.1725 29.6524 24.0823 29.4249 23.8569 29.4249C23.5864 29.4249 23.4962 29.6979 23.6314 30.0163C23.7667 30.3347 23.8569 30.8351 23.8569 31.2899C23.8569 31.8359 23.6766 32.3362 23.3158 32.7001C23.1356 32.882 23.0003 33.0184 23.0003 33.155C23.0003 33.3369 23.1356 33.4279 23.2708 33.4279C23.5413 33.4279 23.8569 33.1095 24.443 33.1095C24.8036 33.1095 25.2544 33.2915 25.9759 33.7464C26.0515 33.7913 26.126 33.8394 26.2012 33.8896V34.4286V35.0655C26.2012 35.7023 25.9307 36.1117 25.3898 36.1117C25.0291 36.1117 24.8036 35.8388 24.8036 35.4748C24.8036 35.2019 24.9839 35.111 24.9839 34.9746C24.9839 34.838 24.8938 34.7471 24.7135 34.7471C24.443 34.7471 23.9922 35.1564 23.9922 35.8388C23.9922 36.4757 24.443 37.249 25.3898 37.249C25.9259 37.249 26.4295 37.0846 26.9007 36.6169C27.3375 37.3289 28.1038 37.9644 28.9705 38.1989C28.7331 39.4004 27.9114 40.3876 26.7423 40.3876C26.1561 40.3876 25.8406 40.0692 25.8406 39.6597C25.8406 39.3413 26.066 39.1594 26.2463 39.0684C26.4717 38.9775 26.652 38.9319 26.652 38.659C26.652 38.5226 26.5618 38.3406 26.111 38.3406C25.2995 38.3406 24.6233 39.0684 24.6233 39.9328C24.6233 40.8879 25.2995 41.7977 26.6972 41.7977C27.8883 41.7977 28.9254 41.2084 29.5808 40.4653C30.352 41.094 31.5266 41.6157 32.1072 41.6157C32.2874 41.6157 32.4678 41.5248 32.4678 41.3428C32.4678 41.1608 32.2874 41.0244 32.1072 40.9335C31.0701 40.3876 30.394 39.6143 30.394 38.2497V38.2271C32.0037 37.9244 33.5093 36.6076 33.8421 34.3418C35.3072 33.7137 36.0744 32.6313 36.0744 31.1535C36.0744 29.0155 34.0907 27.5599 32.0169 27.5599ZM39.681 40.3876C38.1031 40.3876 37.0662 39.4779 37.0662 38.1132C37.0662 36.976 37.8327 36.0662 38.7343 36.0662C39.0949 36.0662 39.4105 36.2026 39.4105 36.5666C39.4105 36.7941 39.3204 36.976 39.5458 36.976C39.681 36.976 39.8163 36.8395 39.8163 36.4757C39.8163 36.0208 39.4105 35.6568 38.8244 35.6568H38.6892C38.7793 35.4748 38.7793 35.2929 38.7793 35.2475C38.7793 34.838 38.4638 34.6106 38.1482 34.6106C37.8327 34.6106 37.5171 34.7926 37.5171 35.02C37.5171 35.111 37.5622 35.1564 37.6523 35.1564C37.7875 35.1564 37.8327 35.02 38.0581 35.02C38.2384 35.02 38.3736 35.111 38.3736 35.3384C38.3736 35.6568 38.1031 35.7933 37.8777 35.9297C37.1565 36.3392 36.6605 37.1579 36.6605 38.1132C36.6605 39.3868 37.3818 40.2057 38.4187 40.5695L37.7424 41.6157C36.8409 41.6157 36.39 42.2981 35.5785 43.7537C35.4884 43.3897 35.2178 43.1168 34.7669 43.1168C34.2711 43.1168 33.9555 43.4808 33.9555 43.9811C33.9555 44.1177 34.0456 44.2086 34.1359 44.2086C34.2711 44.2086 34.3612 44.1177 34.3612 43.9811C34.3612 43.7537 34.4965 43.5262 34.7669 43.5262C35.0825 43.5262 35.2178 43.7537 35.2178 44.0266C35.2178 44.345 35.1728 44.527 34.9473 44.8909C34.0006 46.4375 32.6931 47.2108 31.5661 47.2108C30.5743 47.2108 29.9882 46.6195 29.9882 46.0281C29.9882 45.4823 30.3038 45.0274 30.8448 45.0274C31.2055 45.0274 31.4309 45.2548 31.4309 45.5732C31.4309 45.8462 31.2055 45.8462 31.2055 45.9826C31.2055 46.0737 31.2956 46.1191 31.3857 46.1191C31.6563 46.1191 31.8366 45.8006 31.8366 45.4823C31.8366 44.9819 31.4309 44.618 30.8448 44.618C30.3038 44.618 29.853 44.9819 29.7176 45.3457C29.5824 44.9819 29.1316 44.618 28.5906 44.618C28.0045 44.618 27.5988 44.9819 27.5988 45.4823C27.5988 45.8006 27.7791 46.1191 28.0497 46.1191C28.1398 46.1191 28.2299 46.0737 28.2299 45.9826C28.2299 45.8462 28.0045 45.8462 28.0045 45.5732C28.0045 45.2548 28.2299 45.0274 28.5906 45.0274C29.1316 45.0274 29.4472 45.4823 29.4472 46.0281C29.4472 46.6195 28.8611 47.2108 27.8693 47.2108C26.7423 47.2108 25.4348 46.4375 24.4881 44.8909C24.2626 44.527 24.2175 44.345 24.2175 44.0266C24.2175 43.7537 24.3528 43.5262 24.6684 43.5262C24.9389 43.5262 25.0742 43.7537 25.0742 43.9811C25.0742 44.1177 25.1643 44.2086 25.2995 44.2086C25.3898 44.2086 25.4799 44.1177 25.4799 43.9811C25.4799 43.4808 25.1643 43.1168 24.6684 43.1168C24.2175 43.1168 23.947 43.3897 23.8569 43.7537C23.0454 42.2981 22.5945 41.6157 21.6929 41.6157L21.0167 40.5695C22.0536 40.2057 22.7749 39.3868 22.7749 38.1132C22.7749 37.1579 22.2789 36.3392 21.5576 35.9297C21.3323 35.7933 21.0617 35.6568 21.0617 35.3384C21.0617 35.111 21.1969 35.02 21.3774 35.02C21.6027 35.02 21.6478 35.1564 21.7831 35.1564C21.8732 35.1564 21.9183 35.111 21.9183 35.02C21.9183 34.7926 21.6027 34.6106 21.2872 34.6106C20.9716 34.6106 20.656 34.838 20.656 35.2475C20.656 35.2929 20.656 35.4748 20.7461 35.6568H20.611C20.0249 35.6568 19.6191 36.0208 19.6191 36.4757C19.6191 36.8395 19.7543 36.976 19.8895 36.976C20.115 36.976 20.0249 36.7941 20.0249 36.5666C20.0249 36.2026 20.3404 36.0662 20.7011 36.0662C21.6027 36.0662 22.3692 36.976 22.3692 38.1132C22.3692 39.4779 21.3323 40.3876 19.7543 40.3876C17.906 40.3876 16.5083 39.023 16.5083 37.1124C16.5083 35.2475 17.5904 33.9737 18.8076 32.8366L19.8445 31.8359C21.1519 30.6077 21.6929 29.334 21.6929 27.7419C21.6929 26.0133 20.656 24.1028 18.492 23.1475C18.9429 23.0111 19.2133 22.5562 19.2133 22.0104C19.2133 21.6464 19.0781 21.4191 19.0781 21.146C19.0781 20.6002 19.3937 20.2818 19.8445 20.2818C20.2502 20.2818 20.5207 20.6002 20.5207 20.9186C20.5207 21.1915 20.3404 21.419 20.0249 21.419C19.8895 21.419 19.7994 21.419 19.7994 21.5555C19.7994 21.692 19.9347 21.7375 20.115 21.7375C20.656 21.7375 20.9266 21.2826 20.9266 21.0551C21.0167 21.1006 21.1068 21.146 21.242 21.146C21.5576 21.146 21.7831 20.9186 21.7831 20.6002C21.7831 20.5093 21.738 20.3728 21.6027 20.3728C21.5125 20.3728 21.4675 20.4638 21.4675 20.5548C21.4675 20.6911 21.3774 20.7822 21.242 20.7822C21.0617 20.7822 20.9266 20.6457 20.8363 20.4638C20.656 20.1453 20.2952 19.8724 19.8445 19.8724C19.2585 19.8724 18.8076 20.2818 18.7174 20.8277C18.4469 20.5548 18.1313 20.2818 17.6805 20.0089C18.0412 19.7815 18.3568 19.5995 18.7174 19.3266C19.2585 18.9171 19.7543 18.4622 20.2952 17.8709L22.7749 15.1417C24.9389 12.7308 26.3364 12.1394 27.6889 12.1394C28.8611 12.1394 29.4472 12.7308 29.4472 13.4131C29.4472 13.9133 29.2343 14.2845 28.8964 14.4678C28.7045 14.2716 28.5634 14.0036 28.5005 13.686C28.4554 13.4586 28.4103 13.4586 28.3651 13.4586C28.275 13.4586 28.275 13.5496 28.275 13.6406C28.275 14.0296 28.367 14.3433 28.5176 14.5863C28.4681 14.5924 28.4173 14.5958 28.3651 14.5958C27.9143 14.5958 27.6438 14.3684 27.6438 14.0955C27.6438 14.05 27.6438 13.9589 27.7341 13.868C27.8242 13.7771 27.7791 13.7315 27.7341 13.7315C27.5537 13.7315 27.3734 13.9589 27.3734 14.2319C27.3734 14.5504 27.6438 15.0053 28.4103 15.0053C28.5238 15.0053 28.6745 14.9907 28.8365 14.9415C29.0907 15.138 29.4041 15.2326 29.7176 15.2326C30.0312 15.2326 30.3447 15.138 30.5988 14.9415C30.7608 14.9907 30.9115 15.0053 31.0251 15.0053C31.7916 15.0053 32.0619 14.5504 32.0619 14.2319C32.0619 13.9589 31.8817 13.7315 31.7013 13.7315C31.6563 13.7315 31.6111 13.7771 31.7013 13.868C31.7916 13.9589 31.7916 14.05 31.7916 14.0955C31.7916 14.3684 31.521 14.5958 31.0701 14.5958C31.018 14.5958 30.9673 14.5924 30.9178 14.5863C31.0684 14.3433 31.1603 14.0296 31.1603 13.6406C31.1603 13.5496 31.1603 13.4586 31.0701 13.4586C31.0251 13.4586 30.98 13.4586 30.9349 13.686C30.872 14.0036 30.7309 14.2716 30.539 14.4678C30.201 14.2845 29.9882 13.9133 29.9882 13.4131C29.9882 12.7308 30.5743 12.1394 31.7465 12.1394C33.099 12.1394 34.4965 12.7308 36.6605 15.1417L39.14 17.8709C39.636 18.4622 40.1769 18.9171 40.718 19.3266C41.0786 19.5995 41.3942 19.7815 41.7549 20.0089C41.3041 20.2818 40.9885 20.5548 40.718 20.8277C40.6278 20.2818 40.1769 19.8724 39.5909 19.8724C39.14 19.8724 38.7793 20.1453 38.5991 20.4638C38.5088 20.6457 38.3736 20.7822 38.1932 20.7822C38.0581 20.7822 37.9679 20.6911 37.9679 20.5548C37.9679 20.4638 37.9228 20.3728 37.8327 20.3728C37.6974 20.3728 37.6523 20.5093 37.6523 20.6002C37.6523 20.9186 37.8777 21.146 38.1932 21.146C38.3285 21.146 38.4187 21.1006 38.5088 21.0551C38.5088 21.2826 38.7793 21.7375 39.3204 21.7375C39.5007 21.7375 39.636 21.692 39.636 21.5555C39.636 21.419 39.5458 21.419 39.4105 21.419C39.0949 21.419 38.9147 21.2371 38.9147 20.9186C38.9147 20.6002 39.1852 20.2818 39.5909 20.2818C40.0417 20.2818 40.3573 20.6002 40.3573 21.146C40.3573 21.4191 40.2221 21.6464 40.2221 22.0104C40.2221 22.5562 40.4925 23.0111 40.9434 23.1475C38.7793 24.1028 37.7424 26.0133 37.7424 27.7419C37.7424 29.334 38.2835 30.6077 39.5909 31.8359L40.6278 32.8366C41.845 33.9737 42.9271 35.2475 42.9271 37.1124C42.9271 39.023 41.5294 40.3876 39.681 40.3876ZM29.7176 48.8484C29.357 48.1206 28.9513 47.6657 28.771 47.4383C29.2218 47.2563 29.5374 46.9379 29.7176 46.5739C29.898 46.9379 30.2136 47.2563 30.6644 47.4383C30.4841 47.6657 30.0784 48.1206 29.7176 48.8484ZM30.1736 14.7252C30.0321 14.7888 29.8782 14.8232 29.7176 14.8232C29.5571 14.8232 29.4033 14.7888 29.2618 14.7252C29.4379 14.5908 29.6008 14.3941 29.7176 14.1104C29.8346 14.3941 29.9975 14.5908 30.1736 14.7252ZM43.6484 35.1564C43.3779 35.1564 43.1524 35.2929 43.0623 35.4748C42.7016 34.6561 42.3409 33.8828 40.763 32.4271C40.8533 32.4726 41.1688 32.5182 41.3942 32.5182C41.8902 32.5182 42.4311 32.3817 42.7467 32.0633C42.8368 32.3817 43.1073 32.5636 43.423 32.5636C43.9189 32.5636 44.0992 32.2452 44.0992 31.8813C44.0992 31.7448 44.0541 31.6084 43.9189 31.6084C43.6484 31.6084 43.8737 32.1542 43.423 32.1542C43.2425 32.1542 43.1073 32.0177 43.1073 31.7904C43.1073 31.5629 43.2425 31.2899 43.2425 30.9715C43.2425 30.2437 42.7917 29.7433 42.2508 29.6069C41.9352 29.5159 41.7549 29.2884 41.7549 29.0155C41.7549 28.6517 42.0254 28.6062 42.2058 28.6062C42.386 28.6062 42.5213 28.6517 42.5213 28.5151C42.5213 28.3787 42.386 28.2877 42.1155 28.2877C41.7999 28.2877 41.3491 28.5151 41.3491 29.0155C41.3491 29.1975 41.3942 29.3795 41.5746 29.5615C41.1688 29.6524 40.8081 29.9708 40.8081 30.4712C40.8081 30.7895 40.8983 31.108 41.1237 31.108C41.3942 31.108 41.1688 30.8806 41.1688 30.5166C41.1688 30.1073 41.5294 29.9253 41.8902 29.9253C42.386 29.9253 42.8368 30.3802 42.8368 30.9715C42.8368 31.6538 42.2959 32.1087 41.4393 32.1087C40.9434 32.1087 40.2221 32.0177 39.636 31.3355C38.6892 30.2892 38.1482 29.3795 38.1482 27.7419C38.1482 25.6495 39.636 23.8299 41.7999 23.2386C42.2508 23.1021 42.6115 22.6927 42.6115 22.1468C42.6115 21.692 42.3409 21.3281 41.8902 21.3281C41.7098 21.3281 41.5746 21.3735 41.5746 21.51C41.5746 21.6464 41.7098 21.6464 41.7999 21.6464C41.9803 21.6464 42.2058 21.8284 42.2058 22.1468C42.2058 22.6017 41.845 22.8746 41.4393 22.8746C40.9434 22.8746 40.6278 22.5107 40.6278 22.0104C40.6278 21.0551 41.7549 20.4183 42.6115 20.0089C41.845 19.645 41.5746 19.5086 40.9885 19.0537C40.8533 18.9171 40.8081 18.7807 40.8081 18.5988C40.8081 18.3713 40.9434 18.1893 41.1237 18.1893C41.259 18.1893 41.3491 18.2804 41.3491 18.4168C41.3491 18.5533 41.259 18.5533 41.259 18.6442C41.259 18.7353 41.3041 18.7807 41.3942 18.7807C41.4843 18.7807 41.7098 18.6897 41.7098 18.3258C41.7098 18.0529 41.5294 17.78 41.1237 17.78C40.718 17.78 40.4024 18.0984 40.4024 18.5533C40.0868 18.2804 39.7261 17.9619 39.4105 17.598L37.9679 16.006C37.5622 15.5511 37.7875 14.6868 38.3736 14.6868C38.6892 14.6868 38.8244 14.9142 38.8244 15.0962C38.8244 15.5055 38.4187 15.3236 38.4187 15.5511C38.4187 15.642 38.4638 15.7329 38.5991 15.7329C38.9147 15.7329 39.2302 15.5055 39.2302 15.0507C39.2302 14.6413 38.8696 14.2773 38.3736 14.2773C37.7875 14.2773 37.3818 14.7322 37.3818 15.3691L36.931 14.8687C34.9473 12.6853 33.3243 11.73 31.7465 11.73C31.1603 11.73 30.6193 11.912 30.3038 12.1394C30.0332 11.8211 29.898 11.5936 29.7176 11.3206C29.5374 11.5936 29.4022 11.8211 29.1316 12.1394C28.816 11.912 28.275 11.73 27.6889 11.73C26.111 11.73 24.4881 12.6853 22.5044 14.8687L22.0536 15.3691C22.0536 14.7322 21.6478 14.2773 21.0617 14.2773C20.5658 14.2773 20.2051 14.6413 20.2051 15.0507C20.2051 15.5055 20.5207 15.7329 20.8363 15.7329C20.9716 15.7329 21.0167 15.642 21.0167 15.5511C21.0167 15.3236 20.611 15.5055 20.611 15.0962C20.611 14.9142 20.7461 14.6868 21.0617 14.6868C21.6478 14.6868 21.8732 15.5511 21.4675 16.006L20.0249 17.598C19.7093 17.9619 19.3486 18.2804 19.033 18.5533C19.033 18.0984 18.7174 17.78 18.3117 17.78C17.906 17.78 17.7256 18.0529 17.7256 18.3258C17.7256 18.6897 17.951 18.7807 18.0412 18.7807C18.1313 18.7807 18.1764 18.7353 18.1764 18.6442C18.1764 18.5533 18.0862 18.5533 18.0862 18.4168C18.0862 18.2804 18.1764 18.1893 18.3117 18.1893C18.492 18.1893 18.6273 18.3713 18.6273 18.5988C18.6273 18.7807 18.5822 18.9171 18.4469 19.0537C17.906 19.5995 17.5904 19.645 16.8239 20.0089C17.6805 20.4183 18.8076 21.0551 18.8076 22.0104C18.8076 22.5107 18.492 22.8746 17.9961 22.8746C17.5904 22.8746 17.2296 22.6017 17.2296 22.1468C17.2296 21.8284 17.4551 21.6464 17.6354 21.6464C17.7256 21.6464 17.8608 21.6464 17.8608 21.51C17.8608 21.3735 17.7256 21.3281 17.5452 21.3281C17.0944 21.3281 16.8239 21.692 16.8239 22.1468C16.8239 22.6927 17.1845 23.1021 17.6354 23.2386C19.7994 23.8753 21.2872 25.6495 21.2872 27.7419C21.2872 29.3795 20.7011 30.2437 19.7994 31.3355C19.2133 32.0177 18.492 32.1087 17.9961 32.1087C17.1395 32.1087 16.5985 31.6538 16.5985 30.9715C16.5985 30.3802 17.0493 29.9253 17.5452 29.9253C17.906 29.9253 18.2666 30.1073 18.2666 30.5166C18.2666 30.8806 18.0412 31.108 18.3117 31.108C18.537 31.108 18.6273 30.7895 18.6273 30.4712C18.6273 29.9708 18.2666 29.6524 17.8608 29.5615C18.0412 29.3795 18.0862 29.1975 18.0862 29.0155C18.0862 28.5151 17.6354 28.2877 17.3199 28.2877C17.0493 28.2877 16.9141 28.3787 16.9141 28.5151C16.9141 28.6517 17.0493 28.6062 17.2296 28.6062C17.41 28.6062 17.6805 28.6517 17.6805 29.0155C17.6805 29.2884 17.5001 29.5159 17.1845 29.6069C16.6436 29.7433 16.1927 30.2437 16.1927 30.9715C16.1927 31.2899 16.3281 31.5629 16.3281 31.7904C16.3281 32.0177 16.1927 32.1542 16.0124 32.1542C15.5617 32.1542 15.787 31.6084 15.5166 31.6084C15.3812 31.6084 15.3362 31.7448 15.3362 31.8813C15.3362 32.2452 15.5166 32.5636 16.0124 32.5636C16.3281 32.5636 16.5985 32.3817 16.6887 32.0633C17.0043 32.3817 17.5452 32.5182 18.0412 32.5182C18.2666 32.5182 18.5822 32.4726 18.6724 32.4271C17.0944 33.8828 16.7337 34.6561 16.3731 35.4748C16.2829 35.2929 16.0575 35.1564 15.787 35.1564C15.3362 35.1564 15.1108 35.4294 15.1108 35.8388C15.1108 35.9297 15.1108 36.2026 15.3362 36.2026C15.5166 36.2026 15.4264 36.0208 15.4264 35.8843C15.4264 35.7023 15.5617 35.5659 15.787 35.5659C16.1476 35.5659 16.2379 35.8843 16.1476 36.3846C16.1026 36.6121 16.1026 36.885 16.1026 37.1124C16.1026 39.2504 17.6805 40.797 19.7543 40.797C20.0699 40.797 20.3404 40.7515 20.656 40.706L21.2872 41.6613C20.8363 41.7977 20.5207 42.2071 20.5207 42.662C20.5207 43.2534 20.9716 43.7082 21.5576 43.7082C21.9183 43.7082 22.1888 43.5262 22.1888 43.3443C22.1888 43.2079 22.0986 43.1624 22.0085 43.1624C21.8732 43.1624 21.8732 43.2988 21.5576 43.2988C21.1969 43.2988 20.9266 43.0259 20.9266 42.662C20.9266 42.2981 21.242 42.0252 21.6929 42.0252C22.5494 42.0252 22.9553 43.0259 23.5413 44.0266L24.1274 45.0274C25.0742 46.665 26.6069 47.6202 27.8693 47.6202C28.0497 47.6202 28.2299 47.6202 28.4103 47.5748C28.9513 48.1206 29.4923 49.1214 29.7176 49.5762C29.9431 49.1214 30.4841 48.1206 31.0251 47.5748C31.2055 47.6202 31.3857 47.6202 31.5661 47.6202C32.8284 47.6202 34.3612 46.665 35.308 45.0274L35.8941 44.0266C36.4802 43.0259 36.8859 42.0252 37.7424 42.0252C38.1933 42.0252 38.5088 42.2981 38.5088 42.662C38.5088 43.0259 38.2384 43.2988 37.8777 43.2988C37.5622 43.2988 37.5622 43.1624 37.4268 43.1624C37.3367 43.1624 37.2466 43.2079 37.2466 43.3443C37.2466 43.5262 37.5171 43.7082 37.8777 43.7082C38.4638 43.7082 38.9147 43.2534 38.9147 42.662C38.9147 42.2071 38.5991 41.7977 38.1482 41.6613L38.7793 40.706C39.0949 40.7515 39.3655 40.797 39.681 40.797C41.7549 40.797 43.3328 39.2504 43.3328 37.1124C43.3328 36.885 43.3328 36.6121 43.2877 36.3846C43.1975 35.8843 43.2877 35.5659 43.6484 35.5659C43.8737 35.5659 44.009 35.7023 44.009 35.8843C44.009 36.0208 43.9189 36.2026 44.0992 36.2026C44.3246 36.2026 44.3246 35.9297 44.3246 35.8388C44.3246 35.4294 44.0992 35.1564 43.6484 35.1564ZM42.4762 42.9804C40.4925 45.0274 37.5622 46.483 34.7669 47.8477C32.9186 48.7574 31.1153 49.6672 29.7176 50.7588C28.3201 49.6672 26.5168 48.7574 24.6684 47.8477C21.8732 46.483 18.9429 45.0274 16.9592 42.9804C14.4345 40.3876 13.2173 37.7493 13.2173 34.7471C13.2173 32.1997 14.2092 30.0617 16.4632 27.1961C16.6436 26.9686 16.8239 26.7412 16.8239 26.5591C16.8239 26.3773 16.6436 26.0133 16.5535 25.8314L14.9756 22.3742C14.6149 21.6009 14.2542 20.8732 14.2542 20.0999C14.2542 19.4631 14.66 19.0082 15.201 18.5533L17.4551 16.5062C17.5452 16.4153 17.5452 16.2789 17.5001 16.1878L16.7788 14.6868C16.6887 14.5048 16.6887 14.3684 16.8239 14.2773C19.033 12.7762 20.8814 12.3213 23.5413 11.5936C26.066 10.9113 28.3201 10.3198 29.7176 9.41018C31.1153 10.3198 33.3694 10.9113 35.8941 11.5936C38.554 12.3213 40.3573 12.8673 42.6115 14.2773C42.7467 14.3684 42.7467 14.5048 42.6566 14.6868L41.9352 16.1878C41.8902 16.2789 41.8902 16.4153 41.9803 16.5062L44.2344 18.5533C44.7754 19.0082 45.1812 19.4631 45.1812 20.0999C45.1812 20.8732 44.8205 21.6009 44.4598 22.3742L42.8819 25.8314C42.7917 26.0133 42.6115 26.3773 42.6115 26.5591C42.6115 26.7412 42.7917 26.9686 42.9722 27.1961C45.4066 29.9253 46.2181 32.1997 46.2181 34.7471C46.2181 37.7493 45.0009 40.3876 42.4762 42.9804ZM44.595 27.3324C44.1893 26.8321 43.964 26.6046 43.964 26.4228C43.964 26.2407 44.0992 25.9679 44.2344 25.6495L45.5869 22.6473C45.9927 21.7375 46.3534 20.9642 46.3534 20.0089C46.3534 19.3266 46.0829 18.6442 45.4066 18.0529L43.468 16.3698C43.2877 16.2333 43.2877 16.006 43.3779 15.824L44.0992 14.1864C44.1442 14.0955 44.1442 13.9589 44.009 13.868C41.7999 12.3669 39.2753 11.4571 36.8859 10.7747C34.4965 10.138 31.2956 9.2282 29.7176 8C28.1398 9.2282 24.9389 10.0924 22.5494 10.7747C20.1601 11.4571 17.6354 12.3669 15.4264 13.868C15.2911 13.9589 15.2911 14.0955 15.3362 14.1864L16.0575 15.824C16.1476 16.006 16.1476 16.2333 15.9674 16.3698L14.0288 18.0529C13.3525 18.6442 13.082 19.3266 13.082 20.0089C13.082 20.9642 13.4427 21.7375 13.8485 22.6473L15.201 25.6495C15.3362 25.9679 15.4714 26.2407 15.4714 26.4228C15.4714 26.6046 15.246 26.8321 14.8402 27.3324C12.8115 29.8798 12 31.9722 12 34.7471C12 38.6135 13.8936 41.5703 16.0575 43.7992C18.2666 46.0737 21.3323 47.5748 24.1274 48.9393C25.9759 49.8491 27.9143 50.7588 29.7176 52.2145C31.521 50.7588 33.4596 49.8491 35.308 48.9393C38.1031 47.5748 41.2138 46.0737 43.3779 43.7992C45.5418 41.5703 47.4353 38.6135 47.4353 34.7471C47.4353 31.9722 46.6239 29.8798 44.595 27.3324Z" fill="white"/>
</svg>
